<svg width="87" height="43" viewBox="0 0 87 43" fill="none" xmlns="http://www.w3.org/2000/svg">
<path d="M11.2481 43C10.6379 43 10.0345 42.8249 9.43783 42.4747C8.85475 42.138 8.10894 41.6128 7.20041 40.899C6.52241 40.3603 5.93932 39.9226 5.45116 39.5859C4.97656 39.2626 4.45449 38.9865 3.88497 38.7576C3.329 38.5286 2.75948 38.4141 2.1764 38.4141C1.97299 38.4141 1.81705 38.4209 1.70857 38.4343L4.73926 24.4343C3.83073 24.798 3.1256 25.3569 2.62388 26.1111C2.13572 26.8519 1.89163 27.7609 1.89163 28.8384C1.89163 29.3367 1.93909 29.6869 2.03402 29.8889C2.12894 30.0774 2.1764 30.1852 2.1764 30.2121C1.44415 30.2121 0.894967 30.064 0.528844 29.7677C0.176281 29.4579 0 28.9529 0 28.2525C0 27.3906 0.352563 26.5556 1.05769 25.7475C1.77637 24.9259 2.69168 24.266 3.80361 23.7677C4.91554 23.2559 6.02746 23 7.13939 23C7.32923 23 7.60044 23.0135 7.953 23.0404L4.82062 37.5455C5.2003 37.6397 5.58676 37.7744 5.98 37.9495C6.38681 38.138 6.87497 38.3872 7.4445 38.697C8.3259 39.1684 9.07849 39.5253 9.70225 39.7677C10.326 40.0236 10.9769 40.1515 11.6549 40.1515C12.2651 40.1515 12.8346 40.0438 13.3635 39.8283C13.255 40.8114 13.0109 41.5859 12.6312 42.1515C12.2651 42.7172 11.8041 43 11.2481 43Z" fill="#D92682"/>
<path d="M10.4936 38.0707C9.49016 38.0707 8.71046 37.8148 8.15449 37.303C7.59853 36.7778 7.32055 35.963 7.32055 34.8586C7.32055 33.9293 7.50361 32.9057 7.86973 31.7879C8.23585 30.67 8.8325 29.7071 9.65966 28.899C10.4868 28.0774 11.5377 27.6667 12.8124 27.6667C14.304 27.6667 15.0498 28.3131 15.0498 29.6061C15.0498 30.3603 14.8328 31.0539 14.3989 31.6869C13.965 32.3199 13.3887 32.8316 12.67 33.2222C11.9513 33.5993 11.1852 33.8148 10.3716 33.8687C10.3444 34.2727 10.3309 34.5421 10.3309 34.6768C10.3309 35.3367 10.4462 35.7879 10.6767 36.0303C10.9072 36.2593 11.2801 36.3737 11.7954 36.3737C12.5276 36.3737 13.1514 36.2054 13.6667 35.8687C14.1955 35.532 14.7718 35.0202 15.3956 34.3333H16.0872C14.582 36.8249 12.7175 38.0707 10.4936 38.0707ZM10.5343 32.899C11.036 32.8721 11.5106 32.697 11.9581 32.3737C12.4191 32.0505 12.7853 31.6397 13.0565 31.1414C13.3412 30.6431 13.4836 30.1178 13.4836 29.5657C13.4836 29.0135 13.3141 28.7374 12.9751 28.7374C12.4869 28.7374 12.0056 29.1616 11.531 30.0101C11.0699 30.8586 10.7377 31.8215 10.5343 32.899Z" fill="#D92682"/>
<path d="M18.7881 26.7576C18.3406 26.7576 17.9609 26.6027 17.6491 26.2929C17.3372 25.9832 17.1812 25.6061 17.1812 25.1616C17.1812 24.7172 17.3372 24.3401 17.6491 24.0303C17.9609 23.7071 18.3406 23.5455 18.7881 23.5455C19.2356 23.5455 19.6153 23.7071 19.9271 24.0303C20.2526 24.3401 20.4153 24.7172 20.4153 25.1616C20.4153 25.6061 20.2526 25.9832 19.9271 26.2929C19.6153 26.6027 19.2356 26.7576 18.7881 26.7576ZM17.405 38.0707C16.7541 38.0707 16.2252 37.8687 15.8184 37.4646C15.4252 37.0606 15.2286 36.4545 15.2286 35.6465C15.2286 35.3098 15.2828 34.8721 15.3913 34.3333L16.7744 27.8485H19.7034L18.2389 34.7172C18.1847 34.9192 18.1576 35.1347 18.1576 35.3636C18.1576 35.633 18.2186 35.8283 18.3406 35.9495C18.4762 36.0572 18.6932 36.1111 18.9915 36.1111C19.3847 36.1111 19.7509 35.9495 20.0899 35.6263C20.4289 35.2896 20.673 34.8586 20.8221 34.3333H21.6764C21.1747 35.7879 20.5306 36.7778 19.7441 37.303C18.9576 37.8148 18.1779 38.0707 17.405 38.0707Z" fill="#D92682"/>
<path d="M22.8277 38.0707C22.1768 38.0707 21.648 37.8687 21.2412 37.4646C20.8479 37.0606 20.6513 36.4545 20.6513 35.6465C20.6513 35.3098 20.7055 34.8721 20.814 34.3333L22.9904 24.2121L26.0008 23.8081L23.6616 34.7172C23.6074 34.9192 23.5803 35.1347 23.5803 35.3636C23.5803 35.633 23.6413 35.8283 23.7633 35.9495C23.8989 36.0572 24.1159 36.1111 24.4142 36.1111C24.8075 36.1111 25.1736 35.9495 25.5126 35.6263C25.8516 35.2896 26.0957 34.8586 26.2448 34.3333H27.0991C26.5974 35.7879 25.9533 36.7778 25.1668 37.303C24.3803 37.8148 23.6006 38.0707 22.8277 38.0707Z" fill="#D92682"/>
<path d="M28.6775 38.0707C27.9046 38.0707 27.2605 37.8081 26.7452 37.2828C26.2299 36.7576 25.9723 35.936 25.9723 34.8182C25.9723 33.8215 26.1689 32.7778 26.5622 31.6869C26.969 30.5825 27.5656 29.6532 28.3521 28.899C29.1521 28.1313 30.1014 27.7475 31.1997 27.7475C31.7557 27.7475 32.1693 27.8418 32.4405 28.0303C32.7117 28.2189 32.8473 28.468 32.8473 28.7778V28.9192L33.071 27.8485H36L34.5355 34.7172C34.4813 34.9192 34.4541 35.1347 34.4541 35.3636C34.4541 35.633 34.5152 35.8283 34.6372 35.9495C34.7728 36.0572 34.9898 36.1111 35.2881 36.1111C35.4779 36.1111 35.6271 36.0842 35.7356 36.0303C35.4373 36.7845 35.1525 37.3165 34.8813 37.6263C34.6101 37.9226 34.2168 38.0707 33.7016 38.0707C33.1456 38.0707 32.6913 37.9091 32.3388 37.5859C31.9998 37.2492 31.7896 36.7845 31.7082 36.1919C30.8811 37.4444 29.8708 38.0707 28.6775 38.0707ZM29.9997 36.1111C30.3387 36.1111 30.6709 35.9562 30.9963 35.6465C31.3353 35.3232 31.5658 34.8855 31.6879 34.3333L32.6642 29.7677C32.6642 29.5926 32.5964 29.4242 32.4608 29.2626C32.3252 29.0875 32.115 29 31.8303 29C31.2879 29 30.7997 29.3165 30.3658 29.9495C29.9319 30.569 29.5929 31.3232 29.3488 32.2121C29.1047 33.0875 28.9826 33.862 28.9826 34.5354C28.9826 35.2088 29.0776 35.6397 29.2674 35.8283C29.4708 36.0168 29.7149 36.1111 29.9997 36.1111Z" fill="#D92682"/>
<path d="M4.31733 15C2.83222 15 1.74139 14.6279 1.04483 13.8838C0.348277 13.1397 0 11.906 0 10.1828C0 8.81201 0.229995 7.33682 0.689984 5.75718C1.16312 4.17755 1.91224 2.82637 2.93736 1.70366C3.97562 0.567885 5.28987 0 6.88012 0C7.86581 0 8.66094 0.215405 9.26549 0.646215C9.87005 1.07702 10.1723 1.73629 10.1723 2.62402C10.1723 3.18538 10.0606 3.62924 9.8372 3.95561C9.61377 4.26893 9.2655 4.42559 8.79236 4.42559C8.31923 4.42559 7.94467 4.25587 7.66868 3.91645C7.90524 3.79896 8.11552 3.56397 8.29952 3.21149C8.48351 2.85901 8.57551 2.49347 8.57551 2.11488C8.57551 1.7624 8.47694 1.4752 8.2798 1.25326C8.09581 1.03133 7.79353 0.920366 7.37297 0.920366C6.67641 0.920366 6.01271 1.39687 5.38187 2.34987C4.75103 3.28982 4.23847 4.47781 3.84419 5.91384C3.46306 7.34987 3.27249 8.73368 3.27249 10.0653C3.27249 11.0574 3.44335 11.8146 3.78505 12.3368C4.12676 12.859 4.74446 13.1201 5.63815 13.1201C6.41356 13.1201 7.12983 12.9504 7.78696 12.611C8.44409 12.2715 9.00921 11.7885 9.48235 11.1619L9.93576 11.3577C9.6072 12.1802 9.12093 12.8655 8.47694 13.4138C7.83296 13.9621 7.14297 14.3668 6.40699 14.6279C5.67101 14.876 4.97445 15 4.31733 15Z" fill="#532D40"/>
<path d="M11.7902 14.8042C11.0411 14.8042 10.4169 14.5496 9.91744 14.0405C9.41802 13.5313 9.16831 12.735 9.16831 11.6514C9.16831 10.6854 9.35888 9.67363 9.74001 8.61619C10.1343 7.54569 10.7126 6.64491 11.4748 5.91384C12.2502 5.16971 13.1702 4.79765 14.2348 4.79765C14.7736 4.79765 15.1745 4.88903 15.4373 5.0718C15.7002 5.25457 15.8316 5.49608 15.8316 5.79634V5.93342L16.0484 4.89556H18.8872L17.4678 11.5535C17.4153 11.7493 17.389 11.9582 17.389 12.1802C17.389 12.7415 17.6584 13.0222 18.1972 13.0222C18.5652 13.0222 18.8807 12.8525 19.1435 12.5131C19.4195 12.1736 19.6363 11.7298 19.7941 11.1815H20.622C20.1358 12.5914 19.5312 13.5509 18.8084 14.0601C18.0987 14.5561 17.3824 14.8042 16.6596 14.8042C16.1076 14.8042 15.6607 14.654 15.319 14.3538C14.9905 14.0405 14.7933 13.5901 14.7276 13.0026C14.3465 13.5379 13.9193 13.9752 13.4462 14.3146C12.9862 14.641 12.4342 14.8042 11.7902 14.8042ZM13.0716 12.9047C13.4002 12.9047 13.7222 12.7546 14.0376 12.4543C14.3662 12.141 14.5896 11.7167 14.7079 11.1815L15.6542 6.75587C15.6542 6.58616 15.5884 6.42298 15.457 6.26632C15.3256 6.09661 15.1219 6.01175 14.8459 6.01175C14.3202 6.01175 13.8471 6.31854 13.4265 6.93212C13.0059 7.53264 12.6774 8.26371 12.4408 9.12533C12.2042 9.97389 12.086 10.7245 12.086 11.3773C12.086 12.03 12.178 12.4478 12.362 12.6305C12.5591 12.8133 12.7957 12.9047 13.0716 12.9047Z" fill="#532D40"/>
<path d="M22.4232 14.8042C21.5295 14.8042 20.8461 14.5888 20.373 14.158C19.8999 13.7141 19.6633 13.094 19.6633 12.2976C19.6633 11.906 19.7093 11.5339 19.8013 11.1815L21.9107 1.37076L24.8283 0.979112L23.8821 5.38512C24.2501 5.16319 24.5523 5.01958 24.7889 4.95431C25.0255 4.87598 25.262 4.83681 25.4986 4.83681C27.0494 4.83681 27.8248 5.953 27.8248 8.18538C27.8248 9.08616 27.6474 10.0522 27.2925 11.0836C26.9508 12.1018 26.3726 12.9765 25.5577 13.7076C24.756 14.4386 23.7112 14.8042 22.4232 14.8042ZM23.5272 12.9047C23.9346 12.9047 24.3158 12.6567 24.6706 12.1606C25.0255 11.6514 25.308 11.0248 25.5183 10.2807C25.7286 9.5235 25.8337 8.79896 25.8337 8.10705C25.8337 7.58486 25.7417 7.14099 25.5577 6.77546C25.3737 6.40992 25.1175 6.22715 24.7889 6.22715C24.5918 6.22715 24.3683 6.25979 24.1186 6.32507C23.8821 6.37728 23.7178 6.46214 23.6258 6.57963L22.5415 11.5535C22.5021 11.7102 22.4824 11.8603 22.4824 12.0039C22.4824 12.6044 22.8307 12.9047 23.5272 12.9047Z" fill="#532D40"/>
<path d="M31.3799 14.8042C30.4074 14.8042 29.6517 14.5561 29.1128 14.0601C28.574 13.5509 28.3046 12.7611 28.3046 11.6906C28.3046 10.7898 28.482 9.79765 28.8368 8.7141C29.1917 7.63055 29.77 6.69713 30.5717 5.91384C31.3734 5.11749 32.3919 4.71932 33.6273 4.71932C35.073 4.71932 35.7958 5.34595 35.7958 6.59922C35.7958 7.33029 35.5855 8.00261 35.165 8.61619C34.7444 9.22977 34.1859 9.72585 33.4893 10.1044C32.7928 10.47 32.0502 10.6789 31.2616 10.7311C31.2354 11.1227 31.2222 11.3838 31.2222 11.5144C31.2222 12.154 31.3339 12.5914 31.5574 12.8264C31.7808 13.0483 32.1422 13.1593 32.6416 13.1593C33.3513 13.1593 33.9559 12.9961 34.4553 12.6697C34.9678 12.3433 35.5264 11.8473 36.131 11.1815H36.8012C35.3424 13.5966 33.5353 14.8042 31.3799 14.8042ZM31.4194 9.79112C31.9056 9.76501 32.3656 9.5953 32.7993 9.28198C33.2462 8.96867 33.601 8.5705 33.8639 8.08747C34.1399 7.60444 34.2779 7.0953 34.2779 6.56005C34.2779 6.0248 34.1136 5.75718 33.785 5.75718C33.3119 5.75718 32.8453 6.16841 32.3853 6.99086C31.9385 7.81332 31.6165 8.74674 31.4194 9.79112Z" fill="#532D40"/>
<path d="M38.0785 14.8042C37.4476 14.8042 36.9351 14.6084 36.5408 14.2167C36.1597 13.8251 35.9691 13.2376 35.9691 12.4543C35.9691 12.1279 36.0217 11.7037 36.1268 11.1815L38.2362 1.37076L41.1538 0.979112L38.8867 11.5535C38.8342 11.7493 38.8079 11.9582 38.8079 12.1802C38.8079 12.4413 38.867 12.6305 38.9853 12.748C39.1167 12.8525 39.327 12.9047 39.6162 12.9047C39.9973 12.9047 40.3521 12.748 40.6807 12.4347C41.0093 12.1084 41.2458 11.6906 41.3904 11.1815H42.2184C41.7321 12.5914 41.1078 13.5509 40.3456 14.0601C39.5833 14.5561 38.8276 14.8042 38.0785 14.8042Z" fill="#532D40"/>
<path d="M44.2016 14.8042C43.2291 14.8042 42.4734 14.5561 41.9345 14.0601C41.3957 13.5509 41.1263 12.7611 41.1263 11.6906C41.1263 10.7898 41.3037 9.79765 41.6585 8.7141C42.0134 7.63055 42.5917 6.69713 43.3933 5.91384C44.195 5.11749 45.2136 4.71932 46.449 4.71932C47.8947 4.71932 48.6175 5.34595 48.6175 6.59922C48.6175 7.33029 48.4072 8.00261 47.9867 8.61619C47.5661 9.22977 47.0075 9.72585 46.311 10.1044C45.6144 10.47 44.8719 10.6789 44.0833 10.7311C44.057 11.1227 44.0439 11.3838 44.0439 11.5144C44.0439 12.154 44.1556 12.5914 44.379 12.8264C44.6025 13.0483 44.9639 13.1593 45.4633 13.1593C46.173 13.1593 46.7776 12.9961 47.277 12.6697C47.7895 12.3433 48.3481 11.8473 48.9526 11.1815H49.6229C48.1641 13.5966 46.357 14.8042 44.2016 14.8042ZM44.241 9.79112C44.7273 9.76501 45.1873 9.5953 45.621 9.28198C46.0679 8.96867 46.4227 8.5705 46.6856 8.08747C46.9615 7.60444 47.0995 7.0953 47.0995 6.56005C47.0995 6.0248 46.9353 5.75718 46.6067 5.75718C46.1336 5.75718 45.667 6.16841 45.207 6.99086C44.7602 7.81332 44.4382 8.74674 44.241 9.79112Z" fill="#532D40"/>
<path d="M52.2407 3.83812C51.807 3.83812 51.439 3.68799 51.1367 3.38773C50.8344 3.08747 50.6833 2.72193 50.6833 2.29112C50.6833 1.86031 50.8344 1.49478 51.1367 1.19452C51.439 0.881201 51.807 0.724543 52.2407 0.724543C52.6744 0.724543 53.0424 0.881201 53.3447 1.19452C53.6601 1.49478 53.8178 1.86031 53.8178 2.29112C53.8178 2.72193 53.6601 3.08747 53.3447 3.38773C53.0424 3.68799 52.6744 3.83812 52.2407 3.83812ZM50.9002 14.8042C50.2693 14.8042 49.7568 14.6084 49.3625 14.2167C48.9813 13.8251 48.7908 13.2376 48.7908 12.4543C48.7908 12.1279 48.8433 11.7037 48.9485 11.1815L50.289 4.89556H53.1278L51.7084 11.5535C51.6559 11.7493 51.6296 11.9582 51.6296 12.1802C51.6296 12.4413 51.6887 12.6305 51.807 12.748C51.9384 12.8525 52.1487 12.9047 52.4378 12.9047C52.819 12.9047 53.1738 12.748 53.5024 12.4347C53.8309 12.1084 54.0675 11.6906 54.2121 11.1815H55.0401C54.5538 12.5914 53.9295 13.5509 53.1672 14.0601C52.405 14.5561 51.6493 14.8042 50.9002 14.8042Z" fill="#532D40"/>
<path d="M56.1559 14.8042C55.525 14.8042 55.0125 14.6084 54.6182 14.2167C54.2371 13.8251 54.0465 13.2376 54.0465 12.4543C54.0465 12.1279 54.0991 11.7037 54.2042 11.1815L56.3136 1.37076L59.2312 0.979112L56.9642 11.5535C56.9116 11.7493 56.8853 11.9582 56.8853 12.1802C56.8853 12.4413 56.9444 12.6305 57.0627 12.748C57.1942 12.8525 57.4044 12.9047 57.6936 12.9047C58.0747 12.9047 58.4296 12.748 58.7581 12.4347C59.0867 12.1084 59.3232 11.6906 59.4678 11.1815H60.2958C59.8095 12.5914 59.1852 13.5509 58.423 14.0601C57.6607 14.5561 56.905 14.8042 56.1559 14.8042Z" fill="#532D40"/>
<path d="M62.279 14.8042C61.3065 14.8042 60.5508 14.5561 60.0119 14.0601C59.4731 13.5509 59.2037 12.7611 59.2037 11.6906C59.2037 10.7898 59.3811 9.79765 59.7359 8.7141C60.0908 7.63055 60.6691 6.69713 61.4708 5.91384C62.2725 5.11749 63.291 4.71932 64.5264 4.71932C65.9721 4.71932 66.6949 5.34595 66.6949 6.59922C66.6949 7.33029 66.4846 8.00261 66.0641 8.61619C65.6435 9.22977 65.085 9.72585 64.3884 10.1044C63.6919 10.47 62.9493 10.6789 62.1607 10.7311C62.1345 11.1227 62.1213 11.3838 62.1213 11.5144C62.1213 12.154 62.233 12.5914 62.4565 12.8264C62.6799 13.0483 63.0413 13.1593 63.5407 13.1593C64.2504 13.1593 64.855 12.9961 65.3544 12.6697C65.8669 12.3433 66.4255 11.8473 67.0301 11.1815H67.7003C66.2415 13.5966 64.4344 14.8042 62.279 14.8042ZM62.3185 9.79112C62.8047 9.76501 63.2647 9.5953 63.6984 9.28198C64.1453 8.96867 64.5001 8.5705 64.763 8.08747C65.039 7.60444 65.177 7.0953 65.177 6.56005C65.177 6.0248 65.0127 5.75718 64.6841 5.75718C64.211 5.75718 63.7444 6.16841 63.2844 6.99086C62.8376 7.81332 62.5156 8.74674 62.3185 9.79112Z" fill="#532D40"/>
<path d="M70.3181 3.83812C69.8844 3.83812 69.5164 3.68799 69.2141 3.38773C68.9119 3.08747 68.7607 2.72193 68.7607 2.29112C68.7607 1.86031 68.9119 1.49478 69.2141 1.19452C69.5164 0.881201 69.8844 0.724543 70.3181 0.724543C70.7518 0.724543 71.1198 0.881201 71.4221 1.19452C71.7375 1.49478 71.8952 1.86031 71.8952 2.29112C71.8952 2.72193 71.7375 3.08747 71.4221 3.38773C71.1198 3.68799 70.7518 3.83812 70.3181 3.83812ZM68.9776 14.8042C68.3467 14.8042 67.8342 14.6084 67.4399 14.2167C67.0588 13.8251 66.8682 13.2376 66.8682 12.4543C66.8682 12.1279 66.9208 11.7037 67.0259 11.1815L68.3664 4.89556H71.2052L69.7858 11.5535C69.7333 11.7493 69.707 11.9582 69.707 12.1802C69.707 12.4413 69.7661 12.6305 69.8844 12.748C70.0158 12.8525 70.2261 12.9047 70.5153 12.9047C70.8964 12.9047 71.2512 12.748 71.5798 12.4347C71.9084 12.1084 72.1449 11.6906 72.2895 11.1815H73.1175C72.6312 12.5914 72.0069 13.5509 71.2447 14.0601C70.4824 14.5561 69.7267 14.8042 68.9776 14.8042Z" fill="#532D40"/>
<path d="M74.2333 14.8042C73.6025 14.8042 73.0899 14.6084 72.6956 14.2167C72.3145 13.8251 72.1239 13.2376 72.1239 12.4543C72.1239 12.1279 72.1765 11.7037 72.2816 11.1815L74.391 1.37076L77.3087 0.979112L75.0416 11.5535C74.989 11.7493 74.9627 11.9582 74.9627 12.1802C74.9627 12.4413 75.0219 12.6305 75.1401 12.748C75.2716 12.8525 75.4818 12.9047 75.771 12.9047C76.1521 12.9047 76.507 12.748 76.8355 12.4347C77.1641 12.1084 77.4007 11.6906 77.5452 11.1815H78.3732C77.8869 12.5914 77.2627 13.5509 76.5004 14.0601C75.7381 14.5561 74.9824 14.8042 74.2333 14.8042Z" fill="#532D40"/>
<path d="M79.903 14.8042C79.1539 14.8042 78.5296 14.5496 78.0302 14.0405C77.5308 13.5313 77.2811 12.735 77.2811 11.6514C77.2811 10.6854 77.4717 9.67363 77.8528 8.61619C78.2471 7.54569 78.8253 6.64491 79.5876 5.91384C80.363 5.16971 81.283 4.79765 82.3475 4.79765C82.8864 4.79765 83.2872 4.88903 83.5501 5.0718C83.8129 5.25457 83.9444 5.49608 83.9444 5.79634V5.93342L84.1612 4.89556H87L85.5806 11.5535C85.528 11.7493 85.5018 11.9582 85.5018 12.1802C85.5018 12.4413 85.5609 12.6305 85.6792 12.748C85.8106 12.8525 86.0209 12.9047 86.31 12.9047C86.494 12.9047 86.6386 12.8786 86.7437 12.8264C86.4546 13.5574 86.1786 14.0731 85.9157 14.3734C85.6529 14.6606 85.2718 14.8042 84.7723 14.8042C84.2335 14.8042 83.7932 14.6475 83.4515 14.3342C83.123 14.0078 82.9192 13.5574 82.8404 12.983C82.0387 14.1971 81.0596 14.8042 79.903 14.8042ZM81.1844 12.9047C81.513 12.9047 81.835 12.7546 82.1504 12.4543C82.479 12.141 82.7024 11.7167 82.8207 11.1815L83.7669 6.75587C83.7669 6.58616 83.7012 6.42298 83.5698 6.26632C83.4384 6.09661 83.2347 6.01175 82.9587 6.01175C82.433 6.01175 81.9598 6.31854 81.5393 6.93212C81.1187 7.53264 80.7902 8.26371 80.5536 9.12533C80.317 9.97389 80.1987 10.7245 80.1987 11.3773C80.1987 12.03 80.2907 12.4478 80.4747 12.6305C80.6719 12.8133 80.9084 12.9047 81.1844 12.9047Z" fill="#532D40"/>
</svg>
